# xmcd CD database file
#
# Track frame offsets:
#	150
#	15350
#	41062
#	64622
#	83850
#	106050
#	125687
#	157387
#	176000
#
# Disc length: 2757 seconds
#
# Revision: 8
# Processed by: cddbd v1.5PL3 Copyright (c) Steve Scherf et al.
# Submitted via: CDex 1.50beta8
#
DISCID=710ac309
DTITLE=中島みゆき - 臨月
DYEAR=1981
DGENRE=JPop
TTITLE0=あした天気になれ
TTITLE1=あなたが海を見ているうちに
TTITLE2=あわせ鏡
TTITLE3=ひとり上手
TTITLE4=雪
TTITLE5=バス通り
TTITLE6=友情
TTITLE7=成人世代
TTITLE8=夜曲
EXTD=YEAR: 1981
EXTT0=
EXTT1=
EXTT2=
EXTT3=
EXTT4=
EXTT5=
EXTT6=
EXTT7=
EXTT8=
PLAYORDER=
